<svg width="40" height="40" viewBox="0 0 40 40" fill="none" xmlns="http://www.w3.org/2000/svg">
<g filter="url(#filter0_d)">
<rect width="32" height="32" transform="translate(4)" fill="#F2E7E7"/>
</g>
<g filter="url(#filter1_i)">
<path d="M9.232 26.736C8.64 26.736 8.12 26.688 7.672 26.592C7.224 26.496 6.832 26.264 6.496 25.896C6.176 25.528 6.016 24.96 6.016 24.192C6.016 23.12 6.336 21.68 6.976 19.872C7.632 18.064 8.488 16.248 9.544 14.424C8.744 14.472 8.112 14.592 7.648 14.784C7.184 14.976 6.88 15.272 6.736 15.672C6.8 15.672 6.864 15.752 6.928 15.912C7.008 16.072 7.048 16.24 7.048 16.416C7.048 16.704 6.92 16.936 6.664 17.112C6.408 17.272 6.088 17.352 5.704 17.352C5.256 17.352 4.896 17.232 4.624 16.992C4.352 16.752 4.216 16.408 4.216 15.96C4.216 15.416 4.424 14.92 4.84 14.472C5.272 14.024 5.864 13.672 6.616 13.416C7.368 13.144 8.2 13.008 9.112 13.008C9.448 13.008 9.864 13.032 10.36 13.08C11.672 11 13.056 9.304 14.512 7.992C15.984 6.664 17.384 6 18.712 6C19.48 6 20.112 6.112 20.608 6.336L16.84 24H13.384L15.232 15.288C14.64 15.016 14.096 14.816 13.6 14.688C13.104 14.56 12.576 14.472 12.016 14.424C11.104 16.392 10.352 18.408 9.76 20.472C9.184 22.52 8.896 24.16 8.896 25.392C8.896 26 9.008 26.448 9.232 26.736ZM16.84 7.704C16.152 8.072 15.432 8.76 14.68 9.768C13.944 10.76 13.224 11.968 12.52 13.392C13.672 13.616 14.648 13.896 15.448 14.232L16.84 7.704ZM29.3193 24.408C28.6793 24.408 28.1193 24.272 27.6393 24C27.1753 23.744 26.9433 23.288 26.9433 22.632C26.9433 22.216 27.0473 21.752 27.2553 21.24C27.5433 21.56 27.8073 21.784 28.0473 21.912C28.3033 22.04 28.5753 22.104 28.8633 22.104C29.6633 22.104 30.2553 21.656 30.6393 20.76C31.0393 19.864 31.2393 18.872 31.2393 17.784C31.2393 15.752 30.4793 14.736 28.9593 14.736C28.5273 14.736 28.1593 14.76 27.8553 14.808L25.8873 24H22.4313L25.6953 8.736L29.2473 8.256L28.1193 13.584H28.2633C28.8713 13.584 29.4393 13.392 29.9673 13.008C30.4953 12.608 30.9193 12.112 31.2393 11.52C31.5593 10.912 31.7193 10.304 31.7193 9.696C31.7193 8.96 31.4553 8.344 30.9273 7.848C30.4153 7.352 29.6233 7.104 28.5513 7.104C27.5753 7.104 26.6233 7.328 25.6953 7.776C24.7673 8.208 24.0073 8.864 23.4153 9.744C22.8393 10.624 22.5513 11.688 22.5513 12.936C22.5513 13.528 22.6073 13.944 22.7193 14.184C22.8313 14.408 22.8873 14.536 22.8873 14.568C22.0393 14.568 21.3993 14.4 20.9673 14.064C20.5353 13.712 20.3193 13.144 20.3193 12.36C20.3193 11.272 20.7273 10.24 21.5433 9.264C22.3593 8.288 23.4393 7.504 24.7833 6.912C26.1273 6.304 27.5433 6 29.0313 6C30.1513 6 31.0953 6.176 31.8633 6.528C32.6313 6.88 33.1993 7.344 33.5673 7.92C33.9513 8.496 34.1432 9.128 34.1432 9.816C34.1432 10.552 33.9353 11.264 33.5193 11.952C33.1033 12.64 32.5113 13.2 31.7433 13.632C32.7033 13.808 33.4153 14.256 33.8793 14.976C34.3433 15.68 34.5753 16.52 34.5753 17.496C34.5753 18.408 34.3993 19.4 34.0473 20.472C33.7113 21.544 33.1433 22.472 32.3433 23.256C31.5593 24.024 30.5513 24.408 29.3193 24.408Z" fill="#DD242F" fill-opacity="0.55"/>
</g>
<defs>
<filter id="filter0_d" x="0" y="0" width="40" height="40" filterUnits="userSpaceOnUse" color-interpolation-filters="sRGB">
<feFlood flood-opacity="0" result="BackgroundImageFix"/>
<feColorMatrix in="SourceAlpha" type="matrix" values="0 0 0 0 0 0 0 0 0 0 0 0 0 0 0 0 0 0 127 0"/>
<feOffset dy="4"/>
<feGaussianBlur stdDeviation="2"/>
<feColorMatrix type="matrix" values="0 0 0 0 0 0 0 0 0 0 0 0 0 0 0 0 0 0 0.25 0"/>
<feBlend mode="normal" in2="BackgroundImageFix" result="effect1_dropShadow"/>
<feBlend mode="normal" in="SourceGraphic" in2="effect1_dropShadow" result="shape"/>
</filter>
<filter id="filter1_i" x="4.216" y="6" width="30.3593" height="24.736" filterUnits="userSpaceOnUse" color-interpolation-filters="sRGB">
<feFlood flood-opacity="0" result="BackgroundImageFix"/>
<feBlend mode="normal" in="SourceGraphic" in2="BackgroundImageFix" result="shape"/>
<feColorMatrix in="SourceAlpha" type="matrix" values="0 0 0 0 0 0 0 0 0 0 0 0 0 0 0 0 0 0 127 0" result="hardAlpha"/>
<feOffset dy="4"/>
<feGaussianBlur stdDeviation="2"/>
<feComposite in2="hardAlpha" operator="arithmetic" k2="-1" k3="1"/>
<feColorMatrix type="matrix" values="0 0 0 0 0 0 0 0 0 0 0 0 0 0 0 0 0 0 0.25 0"/>
<feBlend mode="normal" in2="shape" result="effect1_innerShadow"/>
</filter>
</defs>
</svg>
